<?xml version="1.0" standalone="no"?>
<!DOCTYPE svg PUBLIC "-//W3C//DTD SVG 20010904//EN"
 "http://www.w3.org/TR/2001/REC-SVG-20010904/DTD/svg10.dtd">
<svg version="1.0" xmlns="http://www.w3.org/2000/svg"
 width="700.000000pt" height="700.000000pt" viewBox="0 0 700.000000 700.000000"
 preserveAspectRatio="xMidYMid meet">
<metadata>
Created by potrace 1.14, written by Peter Selinger 2001-2017
</metadata>
<g transform="translate(0.000000,700.000000) scale(0.100000,-0.100000)"
fill="#000000" stroke="none">
<path d="M0 3500 l0 -3500 3500 0 3500 0 0 3500 0 3500 -3500 0 -3500 0 0
-3500z m2123 1720 l477 0 0 -125 0 -125 -195 0 -195 0 0 -1070 0 -1070 -170 0
-170 0 -1 1038 c-1 570 -2 1051 -3 1067 l-1 30 -200 5 -200 5 0 120 0 120 70
6 c39 3 79 4 90 3 11 -2 235 -4 498 -4z m2881 1 l533 -1 -1 -122 -2 -123 -194
-5 -195 -5 -5 -1070 c-3 -588 -8 -1069 -12 -1067 -5 1 -80 2 -168 2 l-160 0 0
1070 0 1070 -200 0 -200 0 0 123 c0 68 2 126 4 128 2 2 18 3 35 3 17 -1 271
-2 565 -3z m-1139 -684 c58 -29 104 -101 126 -194 8 -33 13 -274 15 -780 l3
-733 -164 0 -165 0 0 685 c0 741 0 735 -53 770 -59 38 -155 22 -251 -44 l-46
-32 0 -689 0 -689 -85 -3 c-47 -2 -119 -2 -160 0 l-75 4 0 854 0 855 158 -3
157 -3 3 -77 c2 -43 5 -78 7 -78 3 0 33 23 67 51 66 53 159 102 224 119 56 13
204 6 239 -13z m895 -2012 c16 -19 3 -55 -19 -55 -10 0 -24 7 -31 15 -10 13
-10 19 5 35 22 24 29 25 45 5z m-2970 -15 c0 -16 -7 -20 -35 -20 l-35 0 0
-164 c0 -131 -3 -165 -14 -169 -8 -3 -17 -3 -20 0 -3 4 -6 80 -6 170 l0 163
-35 0 c-28 0 -35 4 -35 20 0 19 7 20 90 20 83 0 90 -1 90 -20z m1068 -168 c2
-177 2 -182 -18 -182 -19 0 -20 6 -20 186 0 171 1 185 18 182 15 -3 17 -21 20
-186z m1062 168 c0 -17 -7 -20 -40 -20 l-40 0 0 -163 c0 -90 -3 -166 -6 -170
-3 -3 -12 -3 -20 0 -11 4 -14 38 -14 169 l0 164 -34 0 c-36 0 -52 12 -41 30 3
6 48 10 101 10 87 0 94 -1 94 -20z m-1931 -89 c21 -14 5 -41 -24 -41 -35 0
-45 -31 -45 -134 0 -87 -3 -98 -26 -89 -11 4 -14 33 -14 134 0 122 1 129 20
129 11 0 20 -5 20 -11 0 -5 10 -3 22 5 26 18 28 19 47 7z m222 -20 c28 -29 29
-32 29 -134 l0 -104 -60 -7 c-68 -8 -96 2 -111 41 -23 61 15 113 84 113 44 0
56 19 37 56 -17 30 -53 31 -72 2 -9 -14 -20 -19 -31 -15 -23 9 -21 19 8 51 33
36 78 35 116 -3z m502 -2 c11 -14 17 -38 17 -69 0 -55 -12 -64 -77 -58 -45 4
-63 -18 -45 -56 14 -32 56 -35 74 -6 7 11 18 20 25 20 21 0 25 -20 9 -45 -31
-47 -121 -41 -145 11 -14 32 -14 156 0 188 22 48 107 57 142 15z m373 6 c28
-28 28 -58 1 -63 -11 -2 -20 6 -27 22 -12 32 -45 34 -60 5 -14 -25 0 -44 45
-63 46 -19 65 -43 65 -81 0 -45 -32 -75 -80 -75 -43 0 -83 32 -78 63 5 31 26
32 40 2 16 -36 62 -32 66 6 2 21 -4 29 -35 45 -64 32 -73 43 -73 90 0 33 5 46
22 58 34 24 85 20 114 -9z m389 0 c24 -23 25 -31 25 -135 0 -103 -1 -110 -20
-110 -19 0 -20 7 -20 103 0 109 -7 127 -46 127 -29 0 -38 -27 -35 -109 3 -87
-6 -121 -30 -121 -18 0 -19 8 -19 130 l0 130 40 -2 c22 -1 43 2 47 5 13 13 34
7 58 -18z m649 14 c34 -16 49 -66 44 -151 -3 -62 -7 -73 -31 -94 -37 -31 -81
-31 -112 1 -23 22 -25 32 -25 110 0 48 5 95 11 106 18 35 69 47 113 28z m510
2 c11 -17 -6 -41 -28 -41 -33 0 -46 -38 -46 -135 0 -78 -2 -85 -20 -85 -19 0
-20 7 -20 131 l0 132 28 -6 c15 -3 34 -2 42 4 19 11 37 11 44 0z m333 -2 c31
-12 43 -26 43 -51 0 -25 -27 -23 -40 3 -17 31 -64 22 -68 -13 -3 -24 3 -30 48
-53 54 -28 74 -59 64 -101 -6 -25 -49 -54 -79 -54 -34 0 -75 30 -75 55 0 30
25 34 39 6 16 -28 49 -33 65 -9 20 29 10 45 -44 73 -50 25 -60 39 -60 83 0 35
10 49 40 61 33 13 34 13 67 0z m260 -4 c18 -13 24 -13 51 1 37 18 75 10 91
-19 7 -14 11 -62 9 -132 -2 -90 -6 -110 -18 -110 -12 0 -15 18 -17 95 -4 126
-8 140 -38 140 -13 0 -27 -6 -32 -12 -4 -7 -10 -60 -13 -118 -4 -84 -8 -105
-20 -105 -12 0 -16 21 -20 109 -4 89 -8 111 -22 120 -13 8 -23 8 -35 0 -15 -9
-19 -31 -23 -120 -3 -60 -8 -108 -12 -106 -5 1 -12 2 -18 2 -6 0 -10 50 -10
131 l0 131 24 -4 c14 -3 31 -1 38 3 19 13 41 11 65 -6z m-2873 -4 c3 -5 13
-42 21 -82 19 -88 30 -104 39 -52 21 119 30 143 52 143 20 0 21 -3 14 -32 -4
-18 -18 -74 -30 -125 -36 -155 -62 -150 -105 22 -15 61 -30 116 -32 123 -6 14
33 17 41 3z m1948 -103 c3 -109 4 -113 26 -116 44 -7 52 12 52 124 0 97 1 104
20 104 19 0 20 -7 20 -130 l0 -130 -27 0 c-16 0 -42 -2 -60 -6 -24 -5 -36 -1
-52 15 -19 19 -21 33 -21 136 0 108 1 115 20 115 18 0 20 -8 22 -112z m458
-18 c0 -123 -1 -130 -20 -130 -19 0 -20 7 -20 130 0 123 1 130 20 130 19 0 20
-7 20 -130z"/>
<path d="M2121 2266 c-7 -8 -11 -27 -9 -43 6 -58 88 -32 88 29 0 25 -3 28 -34
28 -18 0 -39 -6 -45 -14z"/>
<path d="M2610 2371 c-5 -11 -10 -29 -10 -40 0 -18 6 -21 45 -21 43 0 45 1 45
28 0 15 -5 33 -12 40 -18 18 -56 14 -68 -7z"/>
<path d="M4052 2378 c-16 -16 -16 -160 0 -176 17 -17 44 -15 62 4 19 18 22
133 6 165 -12 21 -50 25 -68 7z"/>
</g>
</svg>
